<?xml version="1.0" encoding="UTF-8" standalone="no"?>
<!-- Created with Inkscape (http://www.inkscape.org/) -->

<svg
   xmlns:dc="http://purl.org/dc/elements/1.1/"
   xmlns:cc="http://creativecommons.org/ns#"
   xmlns:rdf="http://www.w3.org/1999/02/22-rdf-syntax-ns#"
   xmlns:svg="http://www.w3.org/2000/svg"
   xmlns="http://www.w3.org/2000/svg"
   xmlns:sodipodi="http://sodipodi.sourceforge.net/DTD/sodipodi-0.dtd"
   xmlns:inkscape="http://www.inkscape.org/namespaces/inkscape"
   id="svg2"
   version="1.1"
   inkscape:version="0.91 r13725"
   xml:space="preserve"
   width="430.5"
   height="370.75"
   viewBox="0 0 430.5 370.75"
   sodipodi:docname="schemaLinkGiuntoSensoreNew.svg"><metadata
     id="metadata8"><rdf:RDF><cc:Work
         rdf:about=""><dc:format>image/svg+xml</dc:format><dc:type
           rdf:resource="http://purl.org/dc/dcmitype/StillImage" /><dc:title></dc:title></cc:Work></rdf:RDF></metadata><defs
     id="defs6" /><sodipodi:namedview
     pagecolor="#ffffff"
     bordercolor="#666666"
     borderopacity="1"
     objecttolerance="10"
     gridtolerance="10"
     guidetolerance="10"
     inkscape:pageopacity="0"
     inkscape:pageshadow="2"
     inkscape:window-width="1920"
     inkscape:window-height="1018"
     id="namedview4"
     showgrid="false"
     inkscape:zoom="1.2692437"
     inkscape:cx="477.49006"
     inkscape:cy="150.5993"
     inkscape:window-x="-8"
     inkscape:window-y="-8"
     inkscape:window-maximized="1"
     inkscape:current-layer="g12" /><g
     id="g10"
     inkscape:groupmode="layer"
     inkscape:label="schemaLinkGiuntoSensoreNew"
     transform="matrix(1.25,0,0,-1.25,0,370.75)"><g
       id="g12"><g
         id="g18"
         transform="translate(-181.52543,-150.64088)"><path
           d="m 197.76,192.72 88.3199,0 0,213.36 -88.3199,0 0,-213.36 z"
           style="fill:#9dc3e6;fill-opacity:1;fill-rule:nonzero;stroke:none"
           id="path20"
           inkscape:connector-curvature="0" /></g><g
         id="g22"
         transform="translate(-181.52543,-150.64088)"><path
           d="m 196.32,407.52 90.96,0 0,-216.24 -90.96,0 0,216.24 z m 2.64,-214.8 -1.2,1.2 88.32,0 -1.44,-1.2 0,213.36 1.44,-1.2 -88.32,0 1.2,1.2 0,-213.36 z"
           style="fill:#000000;fill-opacity:1;fill-rule:nonzero;stroke:none"
           id="path24"
           inkscape:connector-curvature="0" /></g><g
         id="g26"
         transform="translate(-181.52543,-150.64088)"><text
           transform="matrix(1,0,0,-1,216.72,292.56)"
           style="font-variant:normal;font-weight:normal;font-size:21.12000084px;font-family:Calibri;-inkscape-font-specification:Calibri;writing-mode:lr-tb;fill:#000000;fill-opacity:1;fill-rule:nonzero;stroke:none"
           id="text28"><tspan
             x="0 8.8704004 13.68576 24.73152 34.341122 39.135361"
             y="0"
             sodipodi:role="line"
             id="tspan30">Link n</tspan></text>
</g><g
         id="g32"
         transform="translate(-181.52543,-150.64088)"><path
           d="m 286.08,216 64.3199,0 0,135.84 -64.3199,0 0,-135.84 z"
           style="fill:#f8cbad;fill-opacity:1;fill-rule:nonzero;stroke:none"
           id="path34"
           inkscape:connector-curvature="0" /></g><g
         id="g36"
         transform="translate(-181.52543,-150.64088)"><path
           d="m 284.64,353.04 66.96,0 0,-138.24 -66.96,0 0,138.24 z m 2.64,-137.04 -1.2,1.44 64.32,0 -1.44,-1.44 0,135.84 1.44,-1.44 -64.32,0 1.2,1.44 0,-135.84 z"
           style="fill:#000000;fill-opacity:1;fill-rule:nonzero;stroke:none"
           id="path38"
           inkscape:connector-curvature="0" /></g><g
         id="g40"
         transform="translate(-181.52543,-150.64088)"><text
           transform="matrix(1,0,0,-1,293.52,288.72)"
           style="font-variant:normal;font-weight:normal;font-size:17.52000046px;font-family:Calibri;-inkscape-font-specification:Calibri;writing-mode:lr-tb;fill:#000000;fill-opacity:1;fill-rule:nonzero;stroke:none"
           id="text42"><tspan
             x="0 7.2007198 16.5564 22.32048 31.4484 40.576321"
             y="0"
             sodipodi:role="line"
             id="tspan44">Torque</tspan></text>
</g><g
         id="g46"
         transform="translate(-181.52543,-150.64088)"><text
           transform="matrix(1,0,0,-1,294.48,267.6)"
           style="font-variant:normal;font-weight:normal;font-size:17.52000046px;font-family:Calibri;-inkscape-font-specification:Calibri;writing-mode:lr-tb;fill:#000000;fill-opacity:1;fill-rule:nonzero;stroke:none"
           id="text48"><tspan
             x="0 6.95544 15.61032 24.738239 31.69368 41.049358"
             y="0"
             sodipodi:role="line"
             id="tspan50">sensor</tspan></text>
</g><g
         id="g52"
         transform="translate(-181.52543,-150.64088)"><path
           d="m 350.4,216 70.56,0 0,135.84 -70.56,0 0,-135.84 z"
           style="fill:#ffe699;fill-opacity:1;fill-rule:nonzero;stroke:none"
           id="path54"
           inkscape:connector-curvature="0" /></g><g
         id="g56"
         transform="translate(-181.52543,-150.64088)"><path
           d="m 348.96,353.04 73.44,0 0,-138.24 -73.44,0 0,138.24 z M 351.6,216 l -1.2,1.44 70.56,0 -1.2,-1.44 0,135.84 1.2,-1.44 -70.56,0 1.2,1.44 0,-135.84 z"
           style="fill:#000000;fill-opacity:1;fill-rule:nonzero;stroke:none"
           id="path58"
           inkscape:connector-curvature="0" /></g><g
         id="g60"
         transform="translate(-181.52543,-150.64088)"><text
           transform="matrix(1,0,0,-1,358.56,276.96)"
           style="font-variant:normal;font-weight:normal;font-size:21.12000084px;font-family:Calibri;-inkscape-font-specification:Calibri;writing-mode:lr-tb;fill:#000000;fill-opacity:1;fill-rule:nonzero;stroke:none"
           id="text62"><tspan
             x="0 18.01536 29.061119 35.798401 46.844158"
             y="0"
             sodipodi:role="line"
             id="tspan64">Motor</tspan></text>
</g><g
         id="g66"
         transform="translate(-181.52543,-150.64088)"><path
           d="m 420.96,161.76 88.3199,0 0,213.36 -88.3199,0 0,-213.36 z"
           style="fill:#9dc3e6;fill-opacity:1;fill-rule:nonzero;stroke:none"
           id="path68"
           inkscape:connector-curvature="0" /></g><g
         id="g70"
         transform="translate(-181.52543,-150.64088)"><path
           d="m 419.76,376.32 90.96,0 0,-216 -90.96,0 0,216 z m 2.64,-214.56 -1.44,1.2 88.32,0 -1.2,-1.2 0,213.36 1.2,-1.44 -88.32,0 1.44,1.44 0,-213.36 z"
           style="fill:#000000;fill-opacity:1;fill-rule:nonzero;stroke:none"
           id="path72"
           inkscape:connector-curvature="0" /></g><g
         id="g74"
         transform="translate(-181.52543,-150.64088)"><text
           transform="matrix(1,0,0,-1,431.28,261.36)"
           style="font-variant:normal;font-weight:normal;font-size:21.12000084px;font-family:Calibri;-inkscape-font-specification:Calibri;writing-mode:lr-tb;fill:#000000;fill-opacity:1;fill-rule:nonzero;stroke:none"
           id="text76"><tspan
             x="0 8.8704004 13.68576 24.73152 34.341122 39.135361"
             y="0"
             sodipodi:role="line"
             id="tspan78">Link n</tspan></text>
</g><g
         id="g80"
         transform="translate(-181.52543,-150.64088)"><text
           transform="matrix(1,0,0,-1,481.44,261.36)"
           style="font-variant:normal;font-weight:normal;font-size:21.12000084px;font-family:Calibri;-inkscape-font-specification:Calibri;writing-mode:lr-tb;fill:#000000;fill-opacity:1;fill-rule:nonzero;stroke:none"
           id="text82"><tspan
             x="0"
             y="0"
             id="tspan84">-</tspan></text>
</g><g
         id="g86"
         transform="translate(-181.52543,-150.64088)"><text
           transform="matrix(1,0,0,-1,487.92,261.36)"
           style="font-variant:normal;font-weight:normal;font-size:21.12000084px;font-family:Calibri;-inkscape-font-specification:Calibri;writing-mode:lr-tb;fill:#000000;fill-opacity:1;fill-rule:nonzero;stroke:none"
           id="text88"><tspan
             x="0"
             y="0"
             id="tspan90">1</tspan></text>
</g><g
         id="g92"
         transform="translate(-181.52543,-150.64088)"><path
           d="m 286.08,351.84 134.88,0 0,23.28 -134.88,0 0,-23.28 z"
           style="fill:#ededed;fill-opacity:1;fill-rule:nonzero;stroke:none"
           id="path94"
           inkscape:connector-curvature="0" /></g><g
         id="g96"
         transform="translate(-181.52543,-150.64088)"><path
           d="m 284.64,376.32 137.76,0 0,-25.92 -137.76,0 0,25.92 z m 2.64,-24.48 -1.2,1.2 134.88,0 -1.2,-1.2 0,23.28 1.2,-1.44 -134.88,0 1.2,1.44 0,-23.28 z"
           style="fill:#000000;fill-opacity:1;fill-rule:nonzero;stroke:none"
           id="path98"
           inkscape:connector-curvature="0" /></g><g
         id="g100"
         transform="translate(-181.52543,-150.64088)"><path
           d="m 286.32,376.32 134.88,-23.28 -0.48,-2.64 -134.88,23.52 0.48,2.4 z"
           style="fill:#000000;fill-opacity:1;fill-rule:nonzero;stroke:none"
           id="path102"
           inkscape:connector-curvature="0" /></g><g
         id="g104"
         transform="translate(-181.52543,-150.64088)"><path
           d="m 286.32,350.4 134.88,23.52 -0.48,2.4 -134.88,-23.28 0.48,-2.64 z"
           style="fill:#000000;fill-opacity:1;fill-rule:nonzero;stroke:none"
           id="path106"
           inkscape:connector-curvature="0" /></g><g
         id="g108"
         transform="translate(-181.52543,-150.64088)"><path
           d="m 286.08,192.72 134.88,0 0,23.28 -134.88,0 0,-23.28 z"
           style="fill:#ededed;fill-opacity:1;fill-rule:nonzero;stroke:none"
           id="path110"
           inkscape:connector-curvature="0" /></g><g
         id="g112"
         transform="translate(-181.52543,-150.64088)"><path
           d="m 284.64,217.44 137.76,0 0,-26.16 -137.76,0 0,26.16 z m 2.64,-24.72 -1.2,1.2 134.88,0 -1.2,-1.2 0,23.28 1.2,-1.2 -134.88,0 1.2,1.2 0,-23.28 z"
           style="fill:#000000;fill-opacity:1;fill-rule:nonzero;stroke:none"
           id="path114"
           inkscape:connector-curvature="0" /></g><g
         id="g116"
         transform="translate(-181.52543,-150.64088)"><path
           d="m 286.32,217.44 134.88,-23.52 -0.48,-2.4 -134.88,23.28 0.48,2.64 z"
           style="fill:#000000;fill-opacity:1;fill-rule:nonzero;stroke:none"
           id="path118"
           inkscape:connector-curvature="0" /></g><g
         id="g120"
         transform="translate(-181.52543,-150.64088)"><path
           d="m 286.32,191.52 134.88,23.28 -0.48,2.64 -134.88,-23.52 0.48,-2.4 z"
           style="fill:#000000;fill-opacity:1;fill-rule:nonzero;stroke:none"
           id="path122"
           inkscape:connector-curvature="0" /></g><g
         id="g124"
         transform="translate(-181.52543,-150.64088)"><path
           d="m 357.36,406.56 0,3.6 0.96,0 0,-3.6 -0.96,0 z m 0,6.24 0,3.6 0.96,0 0,-3.6 -0.96,0 z m 0,6.24 0,3.36 0.96,0 0,-3.36 -0.96,0 z m 0,6 0,3.6 0.96,0 0,-3.6 -0.96,0 z m 0,6.24 0,3.36 0.96,0 0,-3.36 -0.96,0 z m 1.44,5.52 3.6,0 0,-0.72 -3.6,0 0,0.72 z m 6.24,0 3.36,0 0,-0.72 -3.36,0 0,0.72 z m 6,0 3.6,0 0,-0.72 -3.6,0 0,0.72 z m 6.24,0 3.6,0 0,-0.72 -3.6,0 0,0.72 z m 6.24,0 3.36,0 0,-0.72 -3.36,0 0,0.72 z m 6,0 3.6,0 0,-0.72 -3.6,0 0,0.72 z m 6.24,0 3.36,0 0,-0.72 -3.36,0 0,0.72 z m 6,0 3.6,0 0,-0.72 -3.6,0 0,0.72 z m 6.24,0 3.36,0 0,-0.72 -3.36,0 0,0.72 z m 6,0 3.6,0 0,-0.72 -3.6,0 0,0.72 z m 6.24,0 3.6,0 0,-0.72 -3.6,0 0,0.72 z m 6.24,0 3.36,0 0,-0.72 -3.36,0 0,0.72 z m 6,0 3.6,0 0,-0.72 -3.6,0 0,0.72 z m 6.24,0 3.36,0 0,-0.72 -3.36,0 0,0.72 z m 6,0 3.6,0 0,-0.72 -3.6,0 0,0.72 z m 6.24,0 3.36,0 0,-0.72 -3.36,0 0,0.72 z m 6,0 3.6,0 0,-0.72 -3.6,0 0,0.72 z m 6.24,0 3.6,0 0,-0.72 -3.6,0 0,0.72 z m 6.24,0 3.12,0 c 0.24,0 0.48,-0.24 0.48,-0.48 l 0,-0.24 -0.96,0 0,0.24 0.48,-0.24 -3.12,0 0,0.72 z m 3.6,-3.36 0,-3.6 -0.96,0 0,3.6 0.96,0 z m 0,-6.24 0,-3.36 -0.96,0 0,3.36 0.96,0 z m 0,-6 0,-3.6 -0.96,0 0,3.6 0.96,0 z m 0,-6.24 0,-3.36 -0.96,0 0,3.36 0.96,0 z m 0,-6 0,-2.4 c 0,-0.24 -0.24,-0.24 -0.48,-0.24 l -1.44,0 0,0.72 1.44,0 -0.48,-0.48 0,2.4 0.96,0 z m -4.56,-2.64 -3.36,0 0,0.72 3.36,0 0,-0.72 z m -6,0 -3.6,0 0,0.72 3.6,0 0,-0.72 z m -6.24,0 -3.36,0 0,0.72 3.36,0 0,-0.72 z m -6,0 -3.6,0 0,0.72 3.6,0 0,-0.72 z m -6.24,0 -3.6,0 0,0.72 3.6,0 0,-0.72 z m -6.24,0 -3.36,0 0,0.72 3.36,0 0,-0.72 z m -6,0 -3.6,0 0,0.72 3.6,0 0,-0.72 z m -6.24,0 -3.36,0 0,0.72 3.36,0 0,-0.72 z m -6,0 -3.6,0 0,0.72 3.6,0 0,-0.72 z m -6.24,0 -3.36,0 0,0.72 3.36,0 0,-0.72 z m -6,0 -3.6,0 0,0.72 3.6,0 0,-0.72 z m -6.24,0 -3.6,0 0,0.72 3.6,0 0,-0.72 z m -6.24,0 -3.36,0 0,0.72 3.36,0 0,-0.72 z m -6,0 -3.6,0 0,0.72 3.6,0 0,-0.72 z m -6.24,0 -3.36,0 0,0.72 3.36,0 0,-0.72 z m -6,0 -3.6,0 0,0.72 3.6,0 0,-0.72 z m -6.24,0 -3.36,0 0,0.72 3.36,0 0,-0.72 z m -6,0 -3.6,0 0,0.72 3.6,0 0,-0.72 z m -6.24,0 -0.24,0 0,0.72 0.24,0 0,-0.72 z"
           style="fill:#000000;fill-opacity:1;fill-rule:nonzero;stroke:none"
           id="path126"
           inkscape:connector-curvature="0" /></g><g
         id="g128"
         transform="translate(-181.52543,-150.64088)"><text
           transform="matrix(1,0,0,-1,365.28,415.44)"
           style="font-variant:normal;font-weight:normal;font-size:19.20000076px;font-family:Calibri;-inkscape-font-specification:Calibri;writing-mode:lr-tb;fill:#000000;fill-opacity:1;fill-rule:nonzero;stroke:none"
           id="text130"><tspan
             x="0 10.56 19.6992 24.019199 28.3584"
             y="0"
             sodipodi:role="line"
             id="tspan132">Ball </tspan></text>
</g><g
         id="g134"
         transform="translate(-181.52543,-150.64088)"><text
           transform="matrix(1,0,0,-1,398.16,415.44)"
           style="font-variant:normal;font-weight:normal;font-size:19.20000076px;font-family:Calibri;-inkscape-font-specification:Calibri;writing-mode:lr-tb;fill:#000000;fill-opacity:1;fill-rule:nonzero;stroke:none"
           id="text136"><tspan
             x="0 10.08 19.660801 28.799999 35.52 39.84 49.919998 59.040001"
             y="0"
             sodipodi:role="line"
             id="tspan138">bearings</tspan></text>
</g><g
         id="g140"
         transform="translate(-181.52543,-150.64088)"><path
           d="m 414.96,407.28 -53.52,-24.48 0.48,-1.2 53.52,24.48 -0.48,1.2 z m -53.76,-22.32 -3.6,-4.56 6,-0.24 -2.4,4.8 z"
           style="fill:#000000;fill-opacity:1;fill-rule:nonzero;stroke:none"
           id="path142"
           inkscape:connector-curvature="0" /></g></g></g></svg>